<svg xmlns="http://www.w3.org/2000/svg" viewBox="-5 -10 110 110" fill="#ffffff">
  <path d="m19.414 77.59v0.003906l-1.793-1.3281 0.007812-0.003906h0.007813l0.007812-0.003907c2.4492-0.73437 4.6953-1.4141 6.9297-2.9062 2.2656-1.5117 4.5703-3.8984 6.125-6.168 1.5195-2.2188 2.2734-4.2617 2.4531-6.6758 0.18359-2.4922-0.23828-5.4258-0.89062-7.6289-0.64844-2.1797-1.4336-3.3477-2.5586-4.0234-0.71094-0.42578-1.6094-0.69141-2.4883-0.69141-0.59375 0-1.1523 0.12109-1.6328 0.35938-1.2539 0.625-2.2852 2.207-2.4531 3.6445-0.14844 1.2695 0.39844 2.4961 1.7227 3.4805 1.3828 1.0273 3.5547 1.7383 5.6133 1.9219 0.34766 0.03125 0.6875 0.046876 1.0195 0.046876 1.5625 0 3.0586-0.34375 4.7266-1.1367 2.0469-0.96875 4.3281-2.5938 6.3359-4.6953 2.0039-2.0977 3.75-4.6797 5.1719-7.3633 1.4258-2.6836 2.457-5.3398 2.7266-8.168 0.27344-2.8672-0.22656-5.9727-1.0195-8.0195-0.80859-2.0859-1.7266-2.6445-2.293-2.7148h-0.011718 0.011718c-0.050781-0.003906-0.10937-0.007812-0.16016-0.007812-0.66797 0-1.6094 0.48438-2.3047 1.4805-0.70312 1.0078-1.0742 2.4648-0.72266 4.3008 0.35156 1.875 1.4531 4.1211 3.1953 6.1289 1.7695 2.043 4.043 3.6602 6.0586 4.1055 0.42188 0.089844 0.83594 0.13672 1.2539 0.13672 1.5117 0 3.0469-0.57812 4.6094-1.5312 1.9883-1.2188 3.6953-2.8555 4.5625-4.8438 0.89062-2.0352 0.98828-4.5781 1.0742-7.4805 0.015625-0.56641 0.375-1.0664 0.90625-1.2617 0.53125-0.19922 1.1289-0.050781 1.5117 0.37109 1.8398 2.0312 3.4141 3.7383 5.0586 4.5 0.69141 0.32031 1.4062 0.47266 2.1172 0.47266 0.875 0 1.7734-0.22656 2.6445-0.67969 1.6094-0.83203 3.0859-2.4102 3.957-4.2383 0.87109-1.8359 1.1445-3.9258 1.4375-6.293 0.09375-0.76172 0.78906-1.3008 1.5508-1.207 0.76172 0.09375 1.3008 0.78906 1.207 1.5508-0.28516 2.2773-0.58984 4.832-1.6875 7.1406-1.1016 2.3125-2.9844 4.375-5.1875 5.5156-1.2266 0.63281-2.5586 0.98828-3.9219 0.98828-1.1094 0-2.2227-0.23828-3.2852-0.73047-2.2656-1.0508-4.2383-3.2656-5.9492-5.1562l2.418-0.89062c-0.085937 2.7617-0.15625 5.8867-1.3047 8.5117-1.1719 2.6758-3.3711 4.6992-5.6602 6.0977-1.7969 1.1016-3.8438 1.9414-6.0586 1.9414-0.60938 0-1.2305-0.066406-1.8516-0.20312-2.8242-0.62109-5.582-2.7148-7.5586-4.9961-2.0039-2.3086-3.3672-4.9922-3.8281-7.4297-0.46875-2.4766-0.011719-4.7109 1.1758-6.4102 1.0469-1.4961 2.7461-2.668 4.582-2.668 0.16016 0 0.32422 0.007813 0.48438 0.027344h0.011719v0.003906l-0.007812-0.003906c2.1172 0.25391 3.6211 2.0508 4.5547 4.4688 0.94922 2.457 1.5117 5.9961 1.1953 9.2891-0.32031 3.332-1.5273 6.3555-3.0391 9.2031-1.5078 2.8516-3.3945 5.6562-5.6172 7.9805-2.2188 2.3242-4.7734 4.1641-7.1562 5.2891-1.9961 0.94531-3.8945 1.4023-5.9141 1.4023-0.42188 0-0.84375-0.019531-1.2695-0.058593-2.4062-0.21484-5.1172-1.043-7.0195-2.4609-1.9648-1.4609-3.1094-3.5938-2.8242-6.0273 0.26172-2.2617 1.7812-4.7227 3.9766-5.8125 0.91797-0.45703 1.9062-0.64844 2.8672-0.64844 1.3984 0 2.7891 0.41016 3.9219 1.0898 1.9805 1.1914 3.0547 3.1367 3.7891 5.6133 0.72656 2.4609 1.2109 5.7383 0.99609 8.625-0.22266 2.9609-1.168 5.4609-2.9297 8.0352-1.7266 2.5234-4.2734 5.1758-6.875 6.9141-2.625 1.75-5.2539 2.5312-7.6758 3.2539h0.007813-0.007813l-0.007812 0.003906c-0.42969 0.12891-0.88281 0.046875-1.2383-0.21484-0.35156-0.26172-0.55859-0.67578-0.55859-1.1133v-0.003906c0-0.76562 0.62109-1.3867 1.3906-1.3867 0.76562 0 1.3867 0.62109 1.3867 1.3867z"/>
</svg>
