<svg xmlns="http://www.w3.org/2000/svg" viewBox="-5 -10 110 110" fill="#ffffff">
  <path d="m84 53.266c0-1.0117-0.16797-2.043-0.55469-3.0234-0.375-0.98438-0.98047-1.9141-1.8359-2.6797-0.82422-0.74219-1.7969-1.2383-2.7969-1.5391-1.0039-0.30469-2.0391-0.41406-3.0625-0.41406-1.7109 0-3.3906 0.31641-4.9062 0.71484-1.2422 0.32422-2.4648 0.69141-3.6641 1.0977 1.293-3.4688 2.1602-7.1289 2.2773-10.879 0-0.22656 0.007813-0.45703 0.007813-0.69531 0-2.4766-0.40625-5.1758-2.0781-7.4688-1.2188-1.6641-2.7969-2.7344-4.2461-3.4414-1.4531-0.70312-2.8203-1.0508-3.6562-1.2578-0.73047-0.1875-1.4609-0.31641-2.1836-0.41797 0-0.19922 0.023438-0.40625 0.023438-0.60547 0-5.1758-1.8164-9.4922-2.9648-11.801-0.36719-0.74609-1.3047-1.0625-2.0898-0.71484-0.78125 0.34766-1.1172 1.2383-0.75 1.9844 1.043 2.0938 2.6602 6.0195 2.6602 10.531 0 0.16016-0.007813 0.32031-0.019532 0.46875-4.2383 0.14844-8.0625 1.5859-11.852 3.0234-9.625 3.6719-15.109 8.7969-19.223 12.734-0.16406 0.16016-1.6172 1.5664-3.0703 3.5039-0.73047 0.96875-1.4609 2.0625-2.0234 3.2305-0.5625 1.1719-0.98047 2.4102-0.99219 3.7109 0 0.20703 0.011719 0.42578 0.042969 0.64453 0.03125 0.26953 0.09375 0.86328 0.34375 1.5469 0.25 0.67578 0.69922 1.5 1.5547 2.1328 0.57422 0.42578 1.1797 0.65625 1.7227 0.78516 0.54297 0.12891 1.0234 0.14844 1.3984 0.14844 0.21094 0 0.38672 0 0.49219-0.011719 4.1562-0.21875 8.1953-1.7461 11.234-3.1914 3.0391-1.4492 5.0742-2.8398 5.125-2.8672 3.1758-2.1719 5.4609-4.2266 6.7891-5.4766 2.2344-2.1133 4.3828-4.1445 6.2422-6.3867 1.8594-2.2422 3.4141-4.7227 4.3555-7.6562 0.30078-0.93359 0.51172-1.8555 0.66797-2.7695 0.55469 0.082032 1.1055 0.17969 1.6719 0.32031 0.80078 0.19531 1.9102 0.49609 3.0352 1.0391 1.1289 0.54687 2.2461 1.3203 3.1016 2.4922 1.1172 1.5156 1.5156 3.5898 1.5156 5.7695v0.60547c-0.11719 3.9375-1.1719 7.8672-2.7461 11.617-0.125 0.28516-0.25 0.57422-0.38672 0.85156-7.4336 3.1055-14.168 7.5977-20.359 12.426-2.5781 2.0156-5.2852 4.2383-7.1016 7.2422-0.46875 0.78125-0.92969 1.7461-0.9375 2.9141 0 0.625 0.16406 1.3203 0.59375 1.9375 0.46094 0.66406 1.1172 1.0781 1.7422 1.3281 0.63672 0.24609 1.2852 0.34766 1.8789 0.375h0.29297c1.3164 0 2.5273-0.31641 3.6328-0.75391 1.1094-0.43359 2.1094-1.0117 3.0195-1.5664 8.5508-5.2461 15.422-12.844 19.609-21.613 1.9922-0.78125 4.0273-1.4648 6.1055-2.0117 1.3477-0.35547 2.7773-0.60547 4.0742-0.60547 0.77344 0 1.4805 0.089844 2.1094 0.27734 0.625 0.1875 1.1484 0.46875 1.6055 0.875 0.44922 0.40625 0.80469 0.92188 1.0352 1.5352 0.23828 0.60547 0.35547 1.3008 0.35547 1.9961 0 0.16797 0 0.33594-0.023437 0.50391-0.1875 2.2305-0.98047 9.9297-7.5156 17.336-6.6836 7.5781-14.859 13.145-19.973 16.129-0.74219 0.42578-0.97266 1.3477-0.51172 2.043 0.44922 0.70313 1.418 0.92188 2.1484 0.48438 5.3164-3.1016 13.719-8.8047 20.727-16.742 7.1523-8.1016 8.0273-16.562 8.2383-19.012 0.019531-0.24609 0.03125-0.49609 0.03125-0.74219zm-34.465-18.449c-1.6914 2.0547-3.7578 4.0078-5.9922 6.1211-1.2539 1.1797-3.418 3.1133-6.4141 5.168-0.1875 0.13672-2.1602 1.4375-4.957 2.7461-2.7891 1.3086-6.3906 2.5898-9.7305 2.7578-0.10547 0-0.21094 0.011719-0.32422 0.011719-0.19922 0-0.44141-0.023438-0.64844-0.070313-0.21875-0.050781-0.39844-0.12891-0.55469-0.23828-0.22656-0.16797-0.39453-0.42578-0.51953-0.76562-0.125-0.32812-0.16797-0.66406-0.19922-0.90234-0.011718-0.097656-0.019531-0.19922-0.019531-0.30469 0-0.65625 0.25-1.5391 0.69922-2.4727 0.66797-1.3867 1.7539-2.8438 2.6914-3.9453 0.92969-1.1016 1.7227-1.8672 1.7852-1.9336 4.0938-3.9102 9.0938-8.6016 18.168-12.074 3.625-1.3867 6.9766-2.5977 10.359-2.7969-0.125 0.66797-0.28125 1.332-0.50391 2.0039-0.8125 2.5117-2.1289 4.6445-3.832 6.6953zm-5.2617 35.5c-0.84766 0.51562-1.7031 0.99219-2.5391 1.3281-0.83594 0.33594-1.6406 0.52734-2.4219 0.52734h-0.17578c-0.30469 0-0.60547-0.070313-0.80469-0.15234-0.21094-0.078125-0.29297-0.15625-0.32422-0.21484-0.042968-0.070313-0.074218-0.12891-0.074218-0.30078-0.011719-0.29688 0.19922-0.90234 0.52344-1.4258 1.4609-2.4297 3.8398-4.4531 6.3789-6.4297 5.0742-3.957 10.453-7.6172 16.184-10.434-3.9883 6.875-9.7852 12.836-16.746 17.102z"/>
</svg>
