<svg xmlns="http://www.w3.org/2000/svg" viewBox="0 0 24 24" fill="none">
  <path d="M6.98 11.16L10.66 7.48C10.98 7.16 11.51 7.16 11.83 7.48L13.24 8.89C13.56 9.21 13.56 9.74 13.24 10.06L9.56 13.74L12.26 16.44L17.64 11.06C18.28 10.42 18.28 9.38 17.64 8.74L12.56 3.66C11.92 3.02 10.88 3.02 10.24 3.66L4.28 9.62C3.64 10.26 3.64 11.30 4.28 11.94L6.98 14.64V11.16Z" fill="#FF7A00"/>
  <path d="M17.02 12.84L13.34 16.52C13.02 16.84 12.49 16.84 12.17 16.52L10.76 15.11C10.44 14.79 10.44 14.26 10.76 13.94L14.44 10.26L11.74 7.56L6.36 12.94C5.72 13.58 5.72 14.62 6.36 15.26L11.44 20.34C12.08 20.98 13.12 20.98 13.76 20.34L19.72 14.38C20.36 13.74 20.36 12.70 19.72 12.06L17.02 9.36V12.84Z" fill="#FF7A00"/>
</svg>