<svg xmlns="http://www.w3.org/2000/svg" viewBox="0 0 24 24" fill="none">
  <path d="M12 2C8.69 2 6 4.69 6 8V14L4 16V17H20V16L18 14V8C18 4.69 15.31 2 12 2Z" fill="#FFBF00"/>
  <path d="M9 8.5C9 9.33 9.67 10 10.5 10C11.33 10 12 9.33 12 8.5C12 7.67 11.33 7 10.5 7C9.67 7 9 7.67 9 8.5Z" fill="#333333"/>
  <path d="M12 8.5C12 9.33 12.67 10 13.5 10C14.33 10 15 9.33 15 8.5C15 7.67 14.33 7 13.5 7C12.67 7 12 7.67 12 8.5Z" fill="#333333"/>
  <path d="M10 17V18C10 19.1 10.9 20 12 20C13.1 20 14 19.1 14 18V17H10Z" fill="#FFBF00"/>
  <path d="M4.5 17H6V16L7 14.5V8C7 5.24 9.24 3 12 3C14.76 3 17 5.24 17 8V14.5L18 16V17H19.5C20.05 17 20.5 17.45 20.5 18V20H3.5V18C3.5 17.45 3.95 17 4.5 17Z" fill="#FFBF00"/>
</svg>