<svg xmlns="http://www.w3.org/2000/svg" viewBox="0 0 24 24" fill="none">
  <path d="M12 2.5C7.31 2.5 3.5 6.31 3.5 11C3.5 13.38 4.44 15.54 5.98 17.12C5.96 17.56 5.76 18.43 4.89 19.5C4.65 19.8 4.87 20.24 5.25 20.24C6.69 20.24 8.03 19.42 8.69 18.95C9.73 19.32 10.84 19.5 12 19.5C16.69 19.5 20.5 15.69 20.5 11C20.5 6.31 16.69 2.5 12 2.5Z" fill="#FFFC00"/>
  <path d="M9 10C9 10.55 8.55 11 8 11C7.45 11 7 10.55 7 10C7 9.45 7.45 9 8 9C8.55 9 9 9.45 9 10Z" fill="#333333"/>
  <path d="M17 10C17 10.55 16.55 11 16 11C15.45 11 15 10.55 15 10C15 9.45 15.45 9 16 9C16.55 9 17 9.45 17 10Z" fill="#333333"/>
  <path d="M16.5 13C16.5 13 15 15 12 15C9 15 7.5 13 7.5 13" stroke="#333333" stroke-width="1.2" stroke-linecap="round"/>
</svg>